<mxfile host="app.diagrams.net" agent="Mozilla/5.0 (X11; Ubuntu; Linux x86_64; rv:130.0) Gecko/20100101 Firefox/130.0" version="24.7.17">
  <diagram name="Page-1" id="LWOFWfnpxC4VILX40IXY">
    <mxGraphModel dx="454" dy="267" grid="1" gridSize="10" guides="1" tooltips="1" connect="1" arrows="1" fold="1" page="1" pageScale="1" pageWidth="850" pageHeight="1100" math="0" shadow="0">
      <root>
        <mxCell id="0" />
        <mxCell id="1" parent="0" />
        <mxCell id="NR-nkx7P1sxczl-uwj3u-21" style="edgeStyle=orthogonalEdgeStyle;rounded=0;orthogonalLoop=1;jettySize=auto;html=1;endArrow=none;endFill=0;" edge="1" parent="1" source="NR-nkx7P1sxczl-uwj3u-1">
          <mxGeometry relative="1" as="geometry">
            <mxPoint x="480" y="260" as="targetPoint" />
          </mxGeometry>
        </mxCell>
        <mxCell id="NR-nkx7P1sxczl-uwj3u-1" value="" style="shape=trapezoid;perimeter=trapezoidPerimeter;whiteSpace=wrap;html=1;fixedSize=1;rotation=90;" vertex="1" parent="1">
          <mxGeometry x="360" y="240" width="120" height="40" as="geometry" />
        </mxCell>
        <mxCell id="NR-nkx7P1sxczl-uwj3u-8" style="edgeStyle=orthogonalEdgeStyle;rounded=0;orthogonalLoop=1;jettySize=auto;html=1;entryX=0.25;entryY=1;entryDx=0;entryDy=0;endArrow=none;endFill=0;" edge="1" parent="1" source="NR-nkx7P1sxczl-uwj3u-4" target="NR-nkx7P1sxczl-uwj3u-1">
          <mxGeometry relative="1" as="geometry">
            <Array as="points">
              <mxPoint x="370" y="210" />
              <mxPoint x="370" y="230" />
            </Array>
          </mxGeometry>
        </mxCell>
        <mxCell id="NR-nkx7P1sxczl-uwj3u-4" value="State(2)" style="text;html=1;align=center;verticalAlign=middle;whiteSpace=wrap;rounded=0;" vertex="1" parent="1">
          <mxGeometry x="310" y="200" width="50" height="20" as="geometry" />
        </mxCell>
        <mxCell id="NR-nkx7P1sxczl-uwj3u-9" style="edgeStyle=orthogonalEdgeStyle;rounded=0;orthogonalLoop=1;jettySize=auto;html=1;endArrow=none;endFill=0;" edge="1" parent="1" source="NR-nkx7P1sxczl-uwj3u-5">
          <mxGeometry relative="1" as="geometry">
            <mxPoint x="400" y="230" as="targetPoint" />
            <Array as="points">
              <mxPoint x="370" y="250" />
              <mxPoint x="370" y="230" />
            </Array>
          </mxGeometry>
        </mxCell>
        <mxCell id="NR-nkx7P1sxczl-uwj3u-5" value="State(1)" style="text;html=1;align=center;verticalAlign=middle;whiteSpace=wrap;rounded=0;" vertex="1" parent="1">
          <mxGeometry x="310" y="240" width="50" height="20" as="geometry" />
        </mxCell>
        <mxCell id="NR-nkx7P1sxczl-uwj3u-6" value="State(2)" style="text;html=1;align=center;verticalAlign=middle;whiteSpace=wrap;rounded=0;" vertex="1" parent="1">
          <mxGeometry x="310" y="300" width="50" height="20" as="geometry" />
        </mxCell>
        <mxCell id="NR-nkx7P1sxczl-uwj3u-12" style="edgeStyle=orthogonalEdgeStyle;rounded=0;orthogonalLoop=1;jettySize=auto;html=1;entryX=1;entryY=0.5;entryDx=0;entryDy=0;endArrow=none;endFill=0;" edge="1" parent="1" source="NR-nkx7P1sxczl-uwj3u-7" target="NR-nkx7P1sxczl-uwj3u-1">
          <mxGeometry relative="1" as="geometry" />
        </mxCell>
        <mxCell id="NR-nkx7P1sxczl-uwj3u-7" value="State(0)" style="text;html=1;align=center;verticalAlign=middle;whiteSpace=wrap;rounded=0;" vertex="1" parent="1">
          <mxGeometry x="397.5" y="340" width="45" height="20" as="geometry" />
        </mxCell>
        <mxCell id="NR-nkx7P1sxczl-uwj3u-13" value="" style="endArrow=none;html=1;rounded=0;" edge="1" parent="1">
          <mxGeometry width="50" height="50" relative="1" as="geometry">
            <mxPoint x="377.5" y="240" as="sourcePoint" />
            <mxPoint x="397.5" y="220" as="targetPoint" />
          </mxGeometry>
        </mxCell>
        <mxCell id="NR-nkx7P1sxczl-uwj3u-15" style="edgeStyle=orthogonalEdgeStyle;rounded=0;orthogonalLoop=1;jettySize=auto;html=1;entryX=0.75;entryY=1;entryDx=0;entryDy=0;startArrow=oval;startFill=0;endArrow=none;endFill=0;" edge="1" parent="1" source="NR-nkx7P1sxczl-uwj3u-6" target="NR-nkx7P1sxczl-uwj3u-1">
          <mxGeometry relative="1" as="geometry">
            <Array as="points">
              <mxPoint x="370" y="310" />
              <mxPoint x="370" y="290" />
            </Array>
          </mxGeometry>
        </mxCell>
        <mxCell id="NR-nkx7P1sxczl-uwj3u-17" style="edgeStyle=orthogonalEdgeStyle;rounded=0;orthogonalLoop=1;jettySize=auto;html=1;endArrow=none;endFill=0;startArrow=oval;startFill=0;" edge="1" parent="1" source="NR-nkx7P1sxczl-uwj3u-16">
          <mxGeometry relative="1" as="geometry">
            <mxPoint x="400" y="290" as="targetPoint" />
            <Array as="points">
              <mxPoint x="370" y="270" />
              <mxPoint x="370" y="290" />
            </Array>
          </mxGeometry>
        </mxCell>
        <mxCell id="NR-nkx7P1sxczl-uwj3u-16" value="State(2)" style="text;html=1;align=center;verticalAlign=middle;whiteSpace=wrap;rounded=0;" vertex="1" parent="1">
          <mxGeometry x="310" y="260" width="50" height="20" as="geometry" />
        </mxCell>
        <mxCell id="NR-nkx7P1sxczl-uwj3u-18" value="" style="endArrow=none;html=1;rounded=0;" edge="1" parent="1">
          <mxGeometry width="50" height="50" relative="1" as="geometry">
            <mxPoint x="377.5" y="300" as="sourcePoint" />
            <mxPoint x="397.5" y="280" as="targetPoint" />
          </mxGeometry>
        </mxCell>
        <mxCell id="NR-nkx7P1sxczl-uwj3u-19" value="2" style="text;html=1;align=center;verticalAlign=middle;whiteSpace=wrap;rounded=0;fontSize=8;" vertex="1" parent="1">
          <mxGeometry x="380" y="280" width="10" height="10" as="geometry" />
        </mxCell>
        <mxCell id="NR-nkx7P1sxczl-uwj3u-20" value="2" style="text;html=1;align=center;verticalAlign=middle;whiteSpace=wrap;rounded=0;fontSize=8;" vertex="1" parent="1">
          <mxGeometry x="380" y="220" width="10" height="10" as="geometry" />
        </mxCell>
        <mxCell id="NR-nkx7P1sxczl-uwj3u-22" value="" style="endArrow=none;html=1;rounded=0;" edge="1" parent="1">
          <mxGeometry width="50" height="50" relative="1" as="geometry">
            <mxPoint x="450" y="270" as="sourcePoint" />
            <mxPoint x="470" y="250" as="targetPoint" />
          </mxGeometry>
        </mxCell>
        <mxCell id="NR-nkx7P1sxczl-uwj3u-23" value="2" style="text;html=1;align=center;verticalAlign=middle;whiteSpace=wrap;rounded=0;fontSize=8;" vertex="1" parent="1">
          <mxGeometry x="452.5" y="250" width="10" height="10" as="geometry" />
        </mxCell>
        <mxCell id="NR-nkx7P1sxczl-uwj3u-25" value="1" style="text;html=1;align=center;verticalAlign=middle;whiteSpace=wrap;rounded=0;" vertex="1" parent="1">
          <mxGeometry x="397.5" y="220" width="20" height="20" as="geometry" />
        </mxCell>
        <mxCell id="NR-nkx7P1sxczl-uwj3u-26" value="0" style="text;html=1;align=center;verticalAlign=middle;whiteSpace=wrap;rounded=0;" vertex="1" parent="1">
          <mxGeometry x="397.5" y="280" width="20" height="20" as="geometry" />
        </mxCell>
      </root>
    </mxGraphModel>
  </diagram>
</mxfile>
